REM DIRINDEX 1\2,1\4,1\3\5,1\3\6,1\3\7
REM DIRNAME folder01,folder02,folder03,folder04,folder05,folder06,folder07
TITLE ""
FILE "CD3Track40.mp3" MP3
  TRACK 01 AUDIO
    TITLE "0:"
    INDEX 01 00:00:00
  TRACK 02 AUDIO
    TITLE "5:cjc081_3023"
    INDEX 01 00:00:29
  TRACK 03 AUDIO
    TITLE "0:"
    INDEX 01 00:01:62
  TRACK 04 AUDIO
    TITLE "6:cjc081_3024"
    INDEX 01 00:02:32
  TRACK 05 AUDIO
    TITLE "0:"
    INDEX 01 00:03:55
  TRACK 06 AUDIO
    TITLE "5:cjc081_3025"
    INDEX 01 00:04:23
  TRACK 07 AUDIO
    TITLE "0:"
    INDEX 01 00:06:06
  TRACK 08 AUDIO
    TITLE "6:cjc081_3026"
    INDEX 01 00:06:51
  TRACK 09 AUDIO
    TITLE "0:"
    INDEX 01 00:08:23
  TRACK 10 AUDIO
    TITLE "5:cjc081_3027"
    INDEX 01 00:08:68
  TRACK 11 AUDIO
    TITLE "0:"
    INDEX 01 00:10:18
  TRACK 12 AUDIO
    TITLE "6:cjc081_3028"
    INDEX 01 00:10:65
  TRACK 13 AUDIO
    TITLE "0:"
    INDEX 01 00:12:36
  TRACK 14 AUDIO
    TITLE "5:cjc081_3029"
    INDEX 01 00:13:08
  TRACK 15 AUDIO
    TITLE "0:"
    INDEX 01 00:14:33
  TRACK 16 AUDIO
    TITLE "6:cjc081_3030"
    INDEX 01 00:15:07
  TRACK 17 AUDIO
    TITLE "0:"
    INDEX 01 00:17:29
  TRACK 18 AUDIO
    TITLE "5:cjc081_3031"
    INDEX 01 00:17:72
  TRACK 19 AUDIO
    TITLE "0:"
    INDEX 01 00:19:13
  TRACK 20 AUDIO
    TITLE "6:cjc081_3032"
    INDEX 01 00:19:63
  TRACK 21 AUDIO
    TITLE "0:"
    INDEX 01 00:20:65
  TRACK 22 AUDIO
    TITLE "5:cjc081_3033"
    INDEX 01 00:21:37
  TRACK 23 AUDIO
    TITLE "0:"
    INDEX 01 00:22:72
  TRACK 24 AUDIO
    TITLE "6:cjc081_3034"
    INDEX 01 00:23:42
  TRACK 25 AUDIO
    TITLE "0:"
    INDEX 01 00:24:51
  TRACK 26 AUDIO
    TITLE "5:cjc081_3035"
    INDEX 01 00:25:21
  TRACK 27 AUDIO
    TITLE "0:"
    INDEX 01 00:26:28
  TRACK 28 AUDIO
    TITLE "6:cjc081_3036"
    INDEX 01 00:27:02
  TRACK 29 AUDIO
    TITLE "0:"
    INDEX 01 00:30:54
  TRACK 30 AUDIO
    TITLE "5:cjc081_3037"
    INDEX 01 00:31:24
  TRACK 31 AUDIO
    TITLE "0:"
    INDEX 01 00:32:43
  TRACK 32 AUDIO
    TITLE "6:cjc081_3038"
    INDEX 01 00:33:21
  TRACK 33 AUDIO
    TITLE "0:"
    INDEX 01 00:34:49
  TRACK 34 AUDIO
    TITLE "5:cjc081_3039"
    INDEX 01 00:35:15
  TRACK 35 AUDIO
    TITLE "0:"
    INDEX 01 00:36:46
  TRACK 36 AUDIO
    TITLE "6:cjc081_3040"
    INDEX 01 00:37:18
  TRACK 37 AUDIO
    TITLE "0:"
    INDEX 01 00:38:33
  TRACK 38 AUDIO
    TITLE "5:cjc081_3041"
    INDEX 01 00:39:03
  TRACK 39 AUDIO
    TITLE "0:"
    INDEX 01 00:40:30
  TRACK 40 AUDIO
    TITLE "6:cjc081_3042"
    INDEX 01 00:41:00
  TRACK 41 AUDIO
    TITLE "0:"
    INDEX 01 00:42:37
  TRACK 42 AUDIO
    TITLE "5:cjc081_3043"
    INDEX 01 00:43:09
  TRACK 43 AUDIO
    TITLE "0:"
    INDEX 01 00:44:30
  TRACK 44 AUDIO
    TITLE "6:cjc081_3044"
    INDEX 01 00:45:02
  TRACK 45 AUDIO
    TITLE "0:"
    INDEX 01 00:46:66
  TRACK 46 AUDIO
    TITLE "5:cjc081_3045"
    INDEX 01 00:47:30
  TRACK 47 AUDIO
    TITLE "0:"
    INDEX 01 00:49:08
  TRACK 48 AUDIO
    TITLE "6:cjc081_3046"
    INDEX 01 00:49:55
  TRACK 49 AUDIO
    TITLE "0:"
    INDEX 01 00:54:36
  TRACK 50 AUDIO
    TITLE "5:cjc081_3047"
    INDEX 01 00:55:06
  TRACK 51 AUDIO
    TITLE "0:"
    INDEX 01 00:56:29
  TRACK 52 AUDIO
    TITLE "6:cjc081_3048"
    INDEX 01 00:56:72
  TRACK 53 AUDIO
    TITLE "0:"
    INDEX 01 00:58:22
  TRACK 54 AUDIO
    TITLE "5:cjc081_3049"
    INDEX 01 00:58:66
  TRACK 55 AUDIO
    TITLE "0:"
    INDEX 01 01:00:12
  TRACK 56 AUDIO
    TITLE "6:cjc081_3050"
    INDEX 01 01:00:60
  TRACK 57 AUDIO
    TITLE "0:"
    INDEX 01 01:03:27
  TRACK 58 AUDIO
    TITLE "7:cjc081_3051"
    INDEX 01 01:04:68
  TRACK 59 AUDIO
    TITLE "0:"
    INDEX 01 01:15:03
